:FULLY-SPECIFIED
:FORCE-ALL-JOINTS-BE-3DOF
:DEGREES
178
root 8.11224 16.7694 -12.2168 7.61047 7.07435 -2.13217
lfemur -25.9821 8.4528 -17.4389
ltibia 62.4864 0 0
lfoot -8.45811 11.5487 0
ltoes -9.15135 0 0
rfemur -20.0176 2.875 26.8308
rtibia 27.6525 0 0
rfoot -17.8177 1.48641 0
rtoes -14.8638 0 0
lowerback -4.38348 0.242063 0.578428
upperback -0.7582 0.23648 3.42591
thorax 1.66123 0.117342 3.22964
lowerneck -19.183 -7.71187 -14.5814
upperneck 13.9907 -9.4965 15.376
head 9.02938 -3.80642 6.37998
lclavicle 1.57668e-14 -1.3719e-14 0
lhumerus -46.3689 -13.751 97.1392
lradius 31.2345 0 0
lwrist 12.6204 0 0
lhand -8.03937 -21.6893 0
lfingers 7.12502 0 0
lthumb 17.8639 7.41162 0
rclavicle 1.57668e-14 -1.3719e-14 0
rhumerus -38.9592 9.78136 -79.5375
rradius 40.8689 0 0
rwrist -21.3442 0 0
rhand -31.5972 -26.3584 0
rfingers 7.12502 0 0
rthumb -4.85961 -56.2749 0
179
root 8.1096 16.762 -12.0988 7.54405 6.87065 -2.13669
lfemur -27.0901 8.39408 -17.7908
ltibia 61.9295 0 0
lfoot -9.11982 11.4786 0
ltoes -8.54494 0 0
rfemur -19.5684 2.99893 26.9432
rtibia 27.8056 0 0
rfoot -18.2661 1.46943 0
rtoes -15.0235 0 0
lowerback -4.36283 0.377533 0.575808
upperback -0.644764 0.41578 3.39239
thorax 1.75779 0.20567 3.20697
lowerneck -19.3024 -7.74601 -14.5359
upperneck 14.0166 -9.54092 15.3628
head 9.06405 -3.82055 6.35945
lclavicle 1.71614e-14 -1.20277e-14 0
lhumerus -46.1935 -13.4524 96.9061
lradius 31.3345 0 0
lwrist 12.9638 0 0
lhand -8.7839 -21.8809 0
lfingers 7.12502 0 0
lthumb 17.1472 7.28028 0
rclavicle 1.71614e-14 -1.20277e-14 0
rhumerus -38.3655 9.46063 -79.2485
rradius 41.3257 0 0
rwrist -21.4607 0 0
rhand -31.8387 -26.5098 0
rfingers 7.12502 0 0
rthumb -5.09281 -56.4206 0
180
root 8.10767 16.7534 -11.9807 7.47634 6.662 -2.13882
lfemur -28.1603 8.32154 -18.1374
ltibia 61.2667 0 0
lfoot -9.77226 11.3986 0
ltoes -7.9478 0 0
rfemur -19.1127 3.12436 27.049
rtibia 27.9481 0 0
rfoot -18.6997 1.45093 0
rtoes -15.1798 0 0
lowerback -4.34674 0.51144 0.570996
upperback -0.531607 0.593018 3.35787
thorax 1.85707 0.292942 3.18433
lowerneck -19.4199 -7.77721 -14.4892
upperneck 14.0474 -9.58161 15.3465
head 9.09919 -3.83325 6.3383
lclavicle 1.84832e-14 -1.03389e-14 0
lhumerus -46.0098 -13.133 96.6635
lradius 31.4155 0 0
lwrist 13.2796 0 0
lhand -9.53847 -22.0773 0
lfingers 7.12502 0 0
lthumb 16.4208 7.14521 0
rclavicle 1.84832e-14 -1.03389e-14 0
rhumerus -37.7777 9.13436 -78.9631
rradius 41.7815 0 0
rwrist -21.5743 0 0
rhand -32.0777 -26.6601 0
rfingers 7.12502 0 0
rthumb -5.3235 -56.5653 0
181
root 8.10642 16.744 -11.8623 7.40873 6.44938 -2.14057
lfemur -29.1935 8.23424 -18.4721
ltibia 60.5117 0 0
lfoot -10.4119 11.3133 0
ltoes -7.36881 0 0
rfemur -18.6455 3.25033 27.1502
rtibia 28.0687 0 0
rfoot -19.1132 1.43317 0
rtoes -15.3283 0 0
lowerback -4.33565 0.643148 0.565637
upperback -0.420298 0.767237 3.32319
thorax 1.9577 0.37871 3.16168
lowerneck -19.5329 -7.80512 -14.4422
upperneck 14.0818 -9.61825 15.3278
head 9.13399 -3.84446 6.31702
lclavicle 1.9704e-14 -8.67465e-15 0
lhumerus -45.8241 -12.8005 96.4168
lradius 31.4783 0 0
lwrist 13.568 0 0
lhand -10.2924 -22.276 0
lfingers 7.12502 0 0
lthumb 15.6951 7.00792 0
rclavicle 1.9704e-14 -8.67465e-15 0
rhumerus -37.202 8.80931 -78.6856
rradius 42.2355 0 0
rwrist -21.6867 0 0
rhand -32.3116 -26.8084 0
rfingers 7.12502 0 0
rthumb -5.54938 -56.708 0
182
root 8.10583 16.7339 -11.7435 7.3426 6.23381 -2.14395
lfemur -30.19 8.13123 -18.7881
ltibia 59.6781 0 0
lfoot -11.0352 11.2278 0
ltoes -6.81682 0 0
rfemur -18.1618 3.37592 27.2484
rtibia 28.1558 0 0
rfoot -19.5014 1.41841 0
rtoes -15.4646 0 0
lowerback -4.32999 0.772022 0.561377
upperback -0.312408 0.937479 3.28918
thorax 2.05833 0.462524 3.13893
lowerneck -19.6389 -7.82942 -14.3958
upperneck 14.1188 -9.6505 15.3073
head 9.16764 -3.85411 6.29607
lclavicle 2.07954e-14 -7.05672e-15 0
lhumerus -45.6425 -12.4626 96.1714
lradius 31.524 0 0
lwrist 13.8292 0 0
lhand -11.0351 -22.4746 0
lfingers 7.12502 0 0
lthumb 14.9802 6.86992 0
rclavicle 2.07954e-14 -7.05672e-15 0
rhumerus -36.6444 8.49227 -78.4206
rradius 42.6867 0 0
rwrist -21.7992 0 0
rhand -32.5382 -26.9539 0
rfingers 7.12502 0 0
rthumb -5.76816 -56.8481 0
183
root 8.10586 16.7235 -11.6241 7.27933 6.01626 -2.15095
lfemur -31.1506 8.01158 -19.0789
ltibia 58.7798 0 0
lfoot -11.6387 11.1469 0
ltoes -6.30068 0 0
rfemur -17.6564 3.50019 27.3455
rtibia 28.1981 0 0
rfoot -19.8591 1.40891 0
rtoes -15.5844 0 0
lowerback -4.33019 0.897426 0.55986
upperback -0.209507 1.10279 3.25666
thorax 2.15758 0.543936 3.11603
lowerneck -19.7351 -7.84975 -14.3509
upperneck 14.1575 -9.67804 15.2858
head 9.19935 -3.86216 6.27591
lclavicle 2.17292e-14 -5.50706e-15 0
lhumerus -45.4711 -12.1268 95.9328
lradius 31.5535 0 0
lwrist 14.0635 0 0
lhand -11.7558 -22.6709 0
lfingers 7.12502 0 0
lthumb 14.2865 6.73269 0
rclavicle 2.17292e-14 -5.50706e-15 0
rhumerus -36.1111 8.19001 -78.1726
rradius 43.134 0 0
rwrist -21.9133 0 0
rhand -32.755 -27.0958 0
rfingers 7.12502 0 0
rthumb -5.97753 -56.9848 0
184
root 8.10648 16.7128 -11.5039 7.22032 5.79776 -2.16358
lfemur -32.0756 7.87432 -19.3376
ltibia 57.8304 0 0
lfoot -12.2189 11.0755 0
ltoes -5.82926 0 0
rfemur -17.1244 3.62219 27.4434
rtibia 28.184 0 0
rfoot -20.1809 1.40694 0
rtoes -15.6832 0 0
lowerback -4.33668 1.01872 0.562731
upperback -0.113166 1.26221 3.22648
thorax 2.2541 0.622498 3.09292
lowerneck -19.8192 -7.86578 -14.3084
upperneck 14.1966 -9.70056 15.2641
head 9.2283 -3.86852 6.25703
lclavicle 2.24768e-14 -4.04755e-15 0
lhumerus -45.316 -11.8007 95.7063
lradius 31.5678 0 0
lwrist 14.2709 0 0
lhand -12.444 -22.8623 0
lfingers 7.12502 0 0
lthumb 13.6241 6.59775 0
rclavicle 2.24768e-14 -4.04755e-15 0
rhumerus -35.608 7.90931 -77.946
rradius 43.5764 0 0
rwrist -22.0305 0 0
rhand -32.9597 -27.233 0
rfingers 7.12502 0 0
rthumb -6.17521 -57.1172 0
185
root 8.10766 16.7023 -11.3827 7.16695 5.57928 -2.18384
lfemur -32.9658 7.71852 -19.5576
ltibia 56.8437 0 0
lfoot -12.7721 11.0185 0
ltoes -5.41141 0 0
rfemur -16.5606 3.74099 27.5438
rtibia 28.1021 0 0
rfoot -20.4618 1.41475 0
rtoes -15.7567 0 0
lowerback -4.34991 1.13528 0.571634
upperback -0.0249548 1.41478 3.19945
thorax 2.34653 0.697761 3.06952
lowerneck -19.8884 -7.87717 -14.2691
upperneck 14.2352 -9.71771 15.2429
head 9.25369 -3.87315 6.23988
lclavicle 2.30101e-14 -2.70008e-15 0
lhumerus -45.1834 -11.4921 95.4972
lradius 31.568 0 0
lwrist 14.4518 0 0
lhand -13.0889 -23.0467 0
lfingers 7.12502 0 0
lthumb 13.0034 6.4666 0
rclavicle 2.30101e-14 -2.70008e-15 0
rhumerus -35.1412 7.65693 -77.7454
rradius 44.0131 0 0
rwrist -22.1523 0 0
rhand -33.15 -27.3649 0
rfingers 7.12502 0 0
rthumb -6.35889 -57.2445 0
186
root 8.10938 16.6921 -11.2605 7.12061 5.36184 -2.21375
lfemur -33.8216 7.54322 -19.7323
ltibia 55.8334 0 0
lfoot -13.295 10.9807 0
ltoes -5.05601 0 0
rfemur -15.96 3.85566 27.6487
rtibia 27.9409 0 0
rfoot -20.6963 1.43461 0
rtoes -15.8004 0 0
lowerback -4.3703 1.24646 0.588215
upperback 0.0535561 1.55954 3.17641
thorax 2.43349 0.769276 3.04578
lowerneck -19.9403 -7.88358 -14.2339
upperneck 14.2721 -9.72919 15.2229
head 9.27472 -3.87599 6.22495
lclavicle 2.33007e-14 -1.48655e-15 0
lhumerus -45.0793 -11.2085 95.3111
lradius 31.555 0 0
lwrist 14.6064 0 0
lhand -13.6799 -23.2215 0
lfingers 7.12502 0 0
lthumb 12.4346 6.34072 0
rclavicle 2.33007e-14 -1.48655e-15 0
rhumerus -34.7168 7.43965 -77.5753
rradius 44.4429 0 0
rwrist -22.2802 0 0
rhand -33.3234 -27.4905 0
rfingers 7.12502 0 0
rthumb -6.5263 -57.366 0
187
root 8.11159 16.6825 -11.1369 7.08268 5.14643 -2.25531
lfemur -34.6436 7.34749 -19.855
ltibia 54.8132 0 0
lfoot -13.7839 10.967 0
ltoes -4.77189 0 0
rfemur -15.3175 3.96524 27.7599
rtibia 27.6889 0 0
rfoot -20.8793 1.46879 0
rtoes -15.81 0 0
lowerback -4.39829 1.35163 0.614117
upperback 0.120796 1.69555 3.1582
thorax 2.51364 0.836596 3.02163
lowerneck -19.9723 -7.88468 -14.2037
upperneck 14.3064 -9.73466 15.2048
head 9.29059 -3.87696 6.21269
lclavicle 2.33201e-14 -4.2886e-16 0
lhumerus -45.0101 -10.9576 95.1532
lradius 31.5298 0 0
lwrist 14.7348 0 0
lhand -14.2063 -23.3843 0
lfingers 7.12502 0 0
lthumb 11.9279 6.22163 0
rclavicle 2.33201e-14 -4.2886e-16 0
rhumerus -34.3409 7.26424 -77.4401
rradius 44.865 0 0
rwrist -22.4156 0 0
rhand -33.4775 -27.609 0
rfingers 7.12502 0 0
rthumb -6.67513 -57.4809 0
188
root 8.11429 16.6737 -11.012 7.05455 4.93404 -2.31051
lfemur -35.4324 7.13036 -19.9191
ltibia 53.7967 0 0
lfoot -14.2353 10.9824 0
ltoes -4.56793 0 0
rfemur -14.628 4.0688 27.8792
rtibia 27.3348 0 0
rfoot -21.0054 1.51953 0
rtoes -15.7812 0 0
lowerback -4.4343 1.45015 0.650987
upperback 0.175195 1.82183 3.14563
thorax 2.5856 0.89927 2.99701
lowerneck -19.9817 -7.88012 -14.1793
upperneck 14.3369 -9.7338 15.1894
head 9.30049 -3.87601 6.20358
lclavicle 2.30402e-14 4.51106e-16 0
lhumerus -44.9817 -10.747 95.029
lradius 31.4934 0 0
lwrist 14.8373 0 0
lhand -14.6575 -23.533 0
lfingers 7.12502 0 0
lthumb 11.4937 6.11083 0
rclavicle 2.30402e-14 4.51106e-16 0
rhumerus -34.0195 7.13749 -77.3443
rradius 45.2782 0 0
rwrist -22.56 0 0
rhand -33.61 -27.7196 0
rfingers 7.12502 0 0
rthumb -6.80309 -57.5884 0
189
root 8.11742 16.6659 -10.8854 7.03761 4.72568 -2.38137
lfemur -36.1886 6.8909 -19.9177
ltibia 52.7979 0 0
lfoot -14.6458 11.0316 0
ltoes -4.45298 0 0
rfemur -13.8865 4.16541 28.0083
rtibia 26.8669 0 0
rfoot -21.0696 1.58911 0
rtoes -15.7094 0 0
lowerback -4.47878 1.54138 0.700468
upperback 0.215183 1.93744 3.13955
thorax 2.64801 0.956851 2.97185
lowerneck -19.966 -7.86957 -14.1617
upperneck 14.3626 -9.72629 15.1773
head 9.30362 -3.87308 6.19809
lclavicle 2.24325e-14 1.13145e-15 0
lhumerus -45.0003 -10.5844 94.9439
lradius 31.4468 0 0
lwrist 14.914 0 0
lhand -15.0229 -23.6649 0
lfingers 7.12502 0 0
lthumb 11.1421 6.00982 0
rclavicle 2.24325e-14 1.13145e-15 0
rhumerus -33.7587 7.06616 -77.2925
rradius 45.6817 0 0
rwrist -22.7149 0 0
rhand -33.7185 -27.8213 0
rfingers 7.12502 0 0
rthumb -6.90788 -57.6877 0
